<?xml version="1.0" encoding="UTF-8"?>
<svg id="Calque_1" data-name="Calque 1" xmlns="http://www.w3.org/2000/svg" viewBox="0 0 1670.02 1276.5">
  <defs>
    <style>
      .cls-1 {
        fill: none;
        stroke: #000;
        stroke-miterlimit: 10;
        stroke-width: 5px;
      }
    </style>
  </defs>
  <path d="M66.15,378.03c-1.83-1.6.47-8.11,3.26-16,3.39-9.59,7.86-16,11.85-21.33,12.21-16.33,64.89-67.49,93.33-85.04,23.1-14.24,75.53-36.11,119.11-13.63,23.93,12.35,41.62,36.77,47.26,48.59,4.39,9.2,6.58,13.79,6.9,19.59.13,2.35.17,7.91,2.14,15.07,1.63,5.93,2.78,6.41,3.26,6.52,2.98.67,6.69-6.95,11.56-15.11,0,0,8.64-14.51,18.37-25.78,6.63-7.68,13.76-12.63,28-22.52,8.64-6,16.48-11.45,27.9-17.5,30.14-15.98,56.65-21.05,68.84-22.89,1.33-.2,2.34-.39,3.56-.51,46.24-4.39,102.94,20.45,116.74,58.07,7.13,19.45,3.51,44.37,8.89,45.04,3.58.44,7.57-10.3,8.89-13.63,14.95-37.64,69.12-83.79,126.22-96.59,15.67-3.51,45.14-10.12,77.63,2.37,61.07,23.48,78.09,93.41,78.81,96.59,6.75,29.73-9.63,75.93-42.67,167.11-23.22,64.07-35.56,95.84-45.63,113.78-7.81,13.92-32.52,56.21-42.96,98.37-4.02,16.22-4.8,27.91-5.33,36.44-1.59,25.68-2.52,40.54,3.56,44.44,19.91,12.8,101.67-100.65,113.48-92.74,9.42,6.3-18.18,94.76-89.98,135.7-35.05,19.98-67.69,21.23-77.13,21.33-16.53.18-54.81.61-80-23.7-11.25-10.86-26.38-32.92-24.89-82.37,5.29-175.88,211.19-379.67,158.52-464.89-2.37-3.84-9.48-15.34-22.22-18.67-46.64-12.17-112.36,100.39-152.89,169.78-41.36,70.83-65.21,140.26-112.89,279.11-.48,1.4-9.6,28.56-12.44,65.78-1.79,23.44-2.68,35.16,2.97,39.11,22.51,15.73,117.94-97.69,124.14-92.44,4.6,3.89-39.12,98.18-133.33,132.44-19.52,7.1-78.09,28.4-113.78,0-15.92-12.67-30.8-38.01-27.56-99.56,9.89-187.63,168.9-345.24,154.67-439.11-1.03-6.77-3.86-25.47-16.89-32-22.36-11.2-59.43,21.15-72.89,32.89-39.94,34.85-59.17,73.74-61.33,78.22-30.62,63.58-101.11,234.6-186.96,466.67H5.41L232.96,311.07c-2.09-12.49-6.67-26.86-17.78-32-41.59-19.25-139.89,106.94-149.04,98.96Z"/>
  <path d="M1494.74,13.64c-58.41-34.94-123.96,6.64-145.56,20.34-67.95,43.1-105.44,111.71-137.36,177.98-78.14,162.27-120.73,300.52-172.21,462.74-58.79,185.28-88.43,278.37-100.65,300.49-26.62,48.21-149.91,271.45-361.3,287.69-171.26,13.15-293.57-112.64-304.09-123.74-72.7-76.7-94.81-162.6-102.24-201.12-33.68-.03-67.36.06-101.04.26-23.43.14-46.86.34-70.3.59,23.08,37.35,44.14,67.72,60.37,90.09,31.07,42.84,82.95,109.28,140.09,149.16,7.98,5.57,39.79,27.36,98.4,50,61.66,23.83,191.31,71.89,353.3,34.75,40.4-9.26,99.03-27.54,166.06-66.95,34.82-20.6,108.31-65.05,176.31-152.55,49.3-63.44,76.91-125.32,108.65-205.95,86.38-219.39,116.84-357.8,209.11-600.89,0,0,86.11-226.85,151.36-224.59,7.89.27,31.15,9.17,45.79,18.65,2.51,1.62,6.8,4.58,8.2,10.17,2.14,8.54-3.67,18.47-8.54,23.73-8.27,8.93-16.94,7.79-26.65,10.17-18.2,4.46-40.1,21.29-47.15,45.77-5.65,19.59-2.06,45.02,10.25,61.02,20.22,26.29,56.76,17.76,77.9,0,19.19-16.12,30.64-44.02,30.75-71.19.23-59.69-54.4-93.6-59.45-96.62Z"/>
  <polygon points="1354.29 94.17 1595.65 851.92 1474.85 848.8 1279.48 204.61 1354.29 94.17"/>
  <path class="cls-1" d="M1438.36,852.82h231.66"/>
  <line class="cls-1" x1="1027.54" y1="538.89" x2="1576.96" y2="538.89"/>
</svg>