<svg width="62" height="65" viewBox="0 0 62 65" fill="none" xmlns="http://www.w3.org/2000/svg">
<path d="M2.7191 15.3776C5.96197 9.9728 25.0333 -13.0785 54.1548 10.2393C64.4689 18.5009 66.0136 57.5731 38.5843 63.6857C21.5335 67.7715 -2.26685 53.8605 3.29236 33.4381C8.74219 13.4082 59.6437 19.1154 39.5237 42.9223C34.1189 47.9088 29.364 47.2911 25.0016 43.9646C20.6392 40.6381 19.8413 30.6714 27.6139 31.0317C39.7489 31.5979 31.6289 40.7282 27.9807 38.4569C23.5346 35.6901 28.9844 36.6746 30.0975 36.5909C32.1951 36.4301 31.6997 33.2966 27.3951 33.5539C23.0906 33.8113 23.6182 37.614 28.2316 42.3496C32.845 47.0852 40.1221 42.0601 39.9613 35.0917C39.7039 24.1277 4.64356 14.7079 6.89555 43.6879C8.76792 67.7457 45.8615 62.6562 54.1553 50.3667C62.7 40.5866 68.4136 3.1262 30.593 3.28062C-1.99017 3.40931 -0.278658 32.0612 0.248952 32.0612C0.776563 32.0612 -1.76559 22.8478 2.7191 15.3776Z" fill="#FFA707"/>
<path d="M13.1234 16.3744C13.3614 16.9213 37.3935 4.41312 45.6293 19.553C53.8588 34.6993 49.3033 45.5474 37.2069 51.6986C25.3614 57.7211 17.3571 49.6396 11.399 41.5968C11.2574 41.4102 10.9614 41.4938 10.9421 41.7255C10.6912 44.711 11.9395 50.045 22.2214 55.6171C33.282 61.6138 56.5483 46.7828 55.7826 33.7405C55.0169 20.6983 43.017 11.4844 35.5533 10.101C28.0895 8.71765 12.8853 15.8275 13.1234 16.3744Z" fill="#FFA707"/>
</svg>
