<?xml version="1.0" encoding="UTF-8"?>
<svg id="Calque_1" data-name="Calque 1" xmlns="http://www.w3.org/2000/svg" viewBox="0 0 677.33 1347.56">
  <path d="M563.84,1338.67c-6.73,0-17.59-4.17-32.6-12.5-15-7.81-30.53-21.88-46.57-42.19-12.42-13.02-25.35-27.09-38.8-42.19-13.45-15.11-27.68-30.73-42.68-46.88-15-16.15-30.27-32.56-45.79-49.23-15-16.67-30.01-33.08-45.01-49.23-15-16.67-30.01-33.08-45.01-49.23-15-16.15-29.23-31.78-42.68-46.88-13.45-15.11-26.39-29.17-38.8-42.19-1.03-2.08-2.85-3.91-5.43-5.47-2.07-2.08-3.62-3.12-4.66-3.12-2.07,0-3.62,1.82-4.66,5.47-.52,3.65-.78,6.77-.78,9.38-.52,23.96-.52,52.09,0,84.39.52,32.3,1.03,65.11,1.55,98.45,1.03,32.82,1.55,62.77,1.55,89.86,0,16.67,5.17,29.95,15.52,39.85,10.35,9.38,25.61,16.67,45.79,21.88,5.69,1.04,10.61,2.87,14.75,5.47,4.66,2.08,6.98,5.47,6.98,10.16,0,3.65-2.07,6.51-6.21,8.59-4.14,2.08-8.54,3.12-13.19,3.12-13.97,0-25.35-.52-34.15-1.56-8.8-.52-17.07-.78-24.83-.78-7.24-.52-16.3-.78-27.16-.78s-22.25.26-32.6.78c-9.83.52-18.37,1.04-25.61,1.56-6.73.52-11.38.78-13.97.78-3.62,0-7.76-.78-12.42-2.34-4.14-2.08-6.21-4.95-6.21-8.59,0-4.69,2.07-8.07,6.21-10.16,4.14-2.08,8.8-4.17,13.97-6.25,12.42-4.69,21.73-12.5,27.94-23.44,6.73-10.94,10.61-24.48,11.64-40.63,2.07-19.27,4.14-44.8,6.21-76.57,2.59-31.78,4.92-67.46,6.98-107.05,2.07-40.11,3.1-81.52,3.1-124.23,0-27.09-6.98-46.62-20.95-58.6-13.45-11.98-30.01-21.62-49.67-28.91-4.14-1.04-8.8-2.86-13.97-5.47-5.17-3.13-7.76-7.03-7.76-11.72s2.07-7.81,6.21-9.38c4.14-2.08,8.8-3.13,13.97-3.13,9.31,0,19.66.26,31.04.78,11.9.52,24.32,1.04,37.25,1.56,12.93,0,26.39.26,40.36.78,13.97.52,27.94.78,41.91.78,4.14,0,7.24.78,9.31,2.34,2.59,1.56,4.92,3.65,6.98,6.25,11.38,13.02,23.54,27.09,36.48,42.19,13.45,15.11,27.42,30.99,41.91,47.66,14.49,16.15,29.23,32.82,44.24,50.01,15,16.67,29.75,33.6,44.24,50.79,15,17.19,29.49,33.86,43.46,50.01,14.49,16.15,28.46,31.78,41.91,46.88,13.45,15.11,25.87,29.17,37.25,42.19,1.55,2.08,3.36,4.43,5.43,7.03,2.59,2.08,4.92,3.12,6.99,3.12,4.14,0,6.21-3.91,6.21-11.72v-56.26c.52-21.36.78-44.02.78-67.98s-.26-47.66-.78-71.1c0-23.44-.52-45.06-1.55-64.85-.52-14.06-5.95-24.48-16.3-31.26-9.83-7.29-23.54-13.28-41.13-17.97-5.69-1.04-10.61-2.87-14.75-5.47-4.14-2.6-6.21-6.25-6.21-10.94,0-3.65,2.07-6.25,6.21-7.81,4.14-2.08,8.54-3.12,13.19-3.12,11.9,0,21.99.26,30.27.78h71.4c7.24-.52,15-1.04,23.28-1.56,8.8-.52,19.92-.78,33.37-.78,6.21,0,10.87,1.04,13.97,3.12,3.62,2.08,5.43,4.95,5.43,8.59,0,7.81-6.73,13.02-20.18,15.63-18.11,3.65-31.04,8.86-38.8,15.63-7.76,6.77-11.9,17.71-12.42,32.82,0,18.75-.26,38.81-.78,60.17,0,21.36-.52,43.23-1.55,65.63-1.03,22.4-2.07,44.8-3.1,67.2-.52,21.88-1.03,42.97-1.55,63.29-.52,20.31-.78,39.07-.78,56.26,0,11.98.78,25.26,2.33,39.85,1.55,14.06,2.85,27.09,3.88,39.07,1.55,11.46,2.33,19.53,2.33,24.22,0,13.02-2.07,22.14-6.21,27.35-3.62,5.21-8.8,7.81-15.52,7.81Z"/>
  <path d="M67.73,738.55c-7.57,0-13.63-1.38-18.18-4.15-3.79-2.21-5.68-4.98-5.68-8.29,0-8.29,8.33-14.1,24.99-17.41,25.75-4.97,43.93-10.78,54.53-17.41,11.36-6.63,17.04-18.79,17.04-36.48v-377.28c0-17.69-4.92-30.4-14.77-38.14-9.85-7.74-28.4-13.82-55.67-18.24-9.84-1.66-16.66-3.87-20.45-6.63-3.79-3.32-5.68-6.91-5.68-10.78,0-3.32,2.27-6.08,6.81-8.29,4.54-2.76,10.6-4.14,18.18-4.14,18.93,0,38.25.28,57.94.83,19.69.55,39.01,1.38,57.94,2.49,18.93.55,37.11.83,54.53.83,39.38,0,81.42-.28,126.1-.83,44.68-.55,84.45-1.11,119.28-1.66,24.24,0,44.3-.83,60.21-2.49,15.9-2.21,25.37-3.32,28.4-3.32,5.3,0,10.98,1.38,17.04,4.15,6.81,2.21,10.6,6.08,11.36,11.61,3.03,19.9,6.81,39.25,11.36,58.04,4.54,18.79,6.82,35.38,6.82,49.75,0,4.97-1.51,8.84-4.54,11.61-3.03,2.76-6.44,4.15-10.22,4.15s-7.95-1.11-12.5-3.32c-3.78-2.21-6.81-5.53-9.09-9.95-7.57-13.82-14.39-25.71-20.45-35.66-6.06-9.95-12.87-17.96-20.45-24.05-9.09-6.08-20.07-11.89-32.95-17.41-12.87-5.53-29.16-8.29-48.85-8.29h-85.2c-16.66,0-31.05,3.32-43.17,9.95-12.12,6.08-18.18,14.93-18.18,26.53v156.72c0,6.63,2.65,11.61,7.95,14.93,5.3,3.32,12.12,4.98,20.45,4.98h99.97c19.69,0,33.7-4.7,42.03-14.1,9.09-9.95,17.04-21.84,23.86-35.66,5.3-10.5,12.87-15.75,22.72-15.75,3.79,0,7.2,1.66,10.23,4.98,3.03,2.76,4.16,7.19,3.41,13.27-.76,6.63-1.51,13.82-2.27,21.56-.76,7.74-1.51,15.48-2.27,23.22v43.95c.76,7.74,1.14,15.48,1.14,23.22.76,7.74,1.51,15.2,2.27,22.39,1.51,7.74,1.13,13.54-1.14,17.41-2.27,3.32-5.68,4.97-10.23,4.97-12.12,0-20.83-7.19-26.13-21.56-6.82-16.58-14.39-29.3-22.72-38.14-8.33-8.84-20.07-13.27-35.22-13.27h-105.65c-9.09,0-16.28,1.66-21.59,4.97-4.54,2.77-6.82,7.46-6.82,14.1v157.54c0,16.58,4.92,28.19,14.77,34.83,9.85,6.63,24.99,9.95,45.44,9.95h97.7c16.66,0,32.57-1.38,47.71-4.15,15.15-2.76,28.02-7.46,38.63-14.1,12.87-7.74,24.61-17.41,35.22-29.02,10.6-11.61,20.45-24.05,29.54-37.31,3.03-3.87,6.06-6.36,9.09-7.46,3.79-1.66,7.95-2.49,12.5-2.49,3.79,0,6.44,1.66,7.95,4.97,2.27,3.32,3.41,6.91,3.41,10.78,0,9.4-1.89,19.9-5.68,31.51-3.79,11.61-8.71,24.05-14.77,37.31-5.3,12.71-10.6,25.43-15.9,38.14-1.51,3.87-4.92,6.63-10.23,8.29-4.54,1.66-9.47,2.49-14.77,2.49-9.84,0-28.4-.28-55.66-.83-26.51,0-57.94-.28-94.29-.83-36.35-.55-73.84-1.11-112.47-1.66h-107.92c-15.15,0-31.81.28-49.99.83-18.17.55-36.73,1.11-55.66,1.66-18.18,1.11-35.22,1.66-51.12,1.66ZM306.3,168.9c-9.09-1.11-13.63-3.59-13.63-7.46s4.17-9.68,12.5-17.41c18.93-18.24,37.87-35.93,56.8-53.07,19.69-17.14,40.52-34,62.48-50.58,9.85-7.74,22.72-11.06,38.63-9.95,6.06.55,15.53,2.49,28.4,5.8,13.63,3.32,26.13,7.19,37.49,11.61,11.36,4.42,16.28,9.12,14.77,14.09-1.51,5.53-8.71,11.61-21.59,18.24-28.78,13.82-59.83,27.64-93.15,41.46-33.32,13.82-64.75,27.36-94.29,40.63-6.82,2.76-12.87,4.7-18.18,5.8-5.3,1.11-8.71,1.38-10.22.83Z"/>
</svg>