<svg width="182" height="60" viewBox="0 0 182 60" fill="none" xmlns="http://www.w3.org/2000/svg">
<g clip-path="url(#clip0_2502_5969)">
<path d="M16.3029 40.505C14.101 40.505 13 40.0456 13 39.1268C13 38.8099 13.1346 38.501 13.4039 38.2C13.6732 37.899 13.9425 37.7485 14.2119 37.7485C14.402 37.7485 14.5762 37.7961 14.7346 37.8911C14.893 37.9862 15.0515 38.1287 15.2099 38.3188C15.5109 38.6674 15.7326 38.9525 15.8752 39.1743C16.0336 39.3961 16.2079 39.507 16.398 39.507C16.8732 39.507 17.2376 39.198 17.4911 38.5802C17.7445 37.9782 17.8713 36.9802 17.8713 35.5862V22.6594C17.8713 22.1367 17.7683 21.7723 17.5623 21.5663C17.3564 21.3604 16.9366 21.1861 16.3029 21.0436C15.9703 20.9644 15.8039 20.798 15.8039 20.5446C15.8039 20.4337 15.8515 20.3465 15.9465 20.2832C16.0574 20.2198 16.1683 20.1881 16.2792 20.1881C16.6435 20.1881 17.0237 20.196 17.4198 20.2119C17.8317 20.2277 18.2277 20.2515 18.6079 20.2832C19.0039 20.299 19.3683 20.3069 19.701 20.3069C20.0178 20.3069 20.3663 20.299 20.7465 20.2832C21.1425 20.2673 21.5465 20.2515 21.9584 20.2356C22.3861 20.2198 22.7742 20.2119 23.1227 20.2119C23.2653 20.2119 23.3683 20.2436 23.4317 20.3069C23.5109 20.3545 23.5505 20.4337 23.5505 20.5446C23.5505 20.703 23.5029 20.8139 23.4079 20.8772C23.3287 20.9406 23.2099 20.996 23.0515 21.0436C22.4178 21.2178 22.0059 21.4158 21.8158 21.6376C21.6257 21.8436 21.5307 22.1921 21.5307 22.6832V33.7089C21.5307 34.1367 21.4435 34.6119 21.2693 35.1347C21.1109 35.6575 20.8812 36.1881 20.5802 36.7268C20.295 37.2812 19.9782 37.7961 19.6297 38.2713C19.1544 38.8891 18.6237 39.4119 18.0376 39.8396C17.4673 40.2832 16.8891 40.505 16.3029 40.505ZM28.4555 36.0852C27.6001 36.0852 26.8318 35.8634 26.1506 35.4198C25.4852 34.9604 24.9546 34.3426 24.5585 33.5664C24.1783 32.7743 23.9882 31.8792 23.9882 30.8812C23.9882 29.8832 24.2179 28.9802 24.6773 28.1723C25.1367 27.3485 25.7625 26.699 26.5546 26.2238C27.3466 25.7327 28.2179 25.4872 29.1684 25.4872C29.8496 25.4872 30.4595 25.6376 30.9981 25.9386C31.5367 26.2238 31.9645 26.6119 32.2813 27.103C32.614 27.5941 32.7803 28.1485 32.7803 28.7664C32.7803 29.3683 32.5347 29.6693 32.0437 29.6693H27.2912C27.0694 29.6693 26.9031 29.7327 26.7922 29.8594C26.6971 29.9862 26.6496 30.2 26.6496 30.501C26.6496 31.103 26.7843 31.6575 27.0536 32.1644C27.3229 32.6555 27.6872 33.0436 28.1466 33.3287C28.606 33.6139 29.1367 33.7565 29.7387 33.7565C30.1981 33.7565 30.6179 33.6693 30.9981 33.4951C31.3942 33.3208 31.7823 33.0832 32.1625 32.7822C32.2258 32.7347 32.2813 32.6951 32.3288 32.6634C32.3922 32.6159 32.4476 32.5921 32.4951 32.5921C32.6536 32.5921 32.7328 32.6951 32.7328 32.901C32.7328 33.0753 32.6694 33.3129 32.5427 33.6139C32.3843 34.0099 32.1149 34.406 31.7347 34.802C31.3704 35.1822 30.911 35.4911 30.3565 35.7287C29.8021 35.9664 29.1684 36.0852 28.4555 36.0852ZM27.2912 28.6713H28.7169C29.1605 28.6713 29.4694 28.6634 29.6437 28.6475C29.8179 28.6317 29.9763 28.6 30.1189 28.5525C30.1981 28.5208 30.2615 28.4416 30.309 28.3149C30.3565 28.1881 30.3803 28.0456 30.3803 27.8872C30.3803 27.4594 30.2298 27.1109 29.9288 26.8416C29.6437 26.5723 29.2872 26.4376 28.8595 26.4376C28.5268 26.4376 28.21 26.5327 27.909 26.7228C27.6239 26.8971 27.3862 27.1347 27.1961 27.4357C27.0219 27.7208 26.9427 28.0218 26.9585 28.3386C26.9585 28.5604 27.0694 28.6713 27.2912 28.6713ZM36.4158 36.0852C35.988 36.0852 35.592 35.9822 35.2276 35.7763C34.8633 35.5703 34.5702 35.301 34.3484 34.9683C34.1425 34.6357 34.0395 34.2713 34.0395 33.8753C34.0395 33.3367 34.2059 32.8852 34.5385 32.5208C34.887 32.1565 35.394 31.8317 36.0593 31.5466L38.1742 30.6198C38.491 30.4773 38.6811 30.3505 38.7445 30.2396C38.8237 30.1287 38.8633 29.9228 38.8633 29.6218L38.887 28.2674C38.9029 27.8238 38.8237 27.4753 38.6494 27.2218C38.4752 26.9525 38.2138 26.8178 37.8653 26.8178C37.6593 26.8178 37.4534 26.8654 37.2474 26.9604C37.0415 27.0396 36.8831 27.1347 36.7722 27.2456C36.7247 27.3089 36.6851 27.3881 36.6534 27.4832C36.6375 27.5624 36.6296 27.6495 36.6296 27.7446C36.6296 27.8396 36.6375 27.9584 36.6534 28.101C36.6692 28.2277 36.6771 28.3386 36.6771 28.4337C36.6771 28.5287 36.5504 28.6555 36.2969 28.8139C36.0435 28.9565 35.7504 29.0911 35.4177 29.2178C35.0851 29.3287 34.7999 29.3842 34.5623 29.3842C34.4514 29.3842 34.3484 29.3367 34.2534 29.2416C34.1742 29.1466 34.1346 29.0277 34.1346 28.8852C34.1346 28.6317 34.2217 28.3862 34.396 28.1485C34.5702 27.8951 34.8554 27.6099 35.2514 27.2931C35.6633 26.9446 36.1148 26.6357 36.6059 26.3664C37.0969 26.0971 37.5801 25.8832 38.0554 25.7248C38.5464 25.5664 38.9583 25.4872 39.291 25.4872C40.1464 25.4872 40.8276 25.7644 41.3346 26.3188C41.8415 26.8575 42.0791 27.5782 42.0474 28.4812L41.9286 33.2812C41.9128 33.6456 41.9761 33.9545 42.1187 34.2079C42.2613 34.4614 42.4356 34.5881 42.6415 34.5881C42.9425 34.5881 43.2039 34.4852 43.4257 34.2792C43.4732 34.2317 43.5207 34.2079 43.5682 34.2079C43.6474 34.2079 43.7108 34.2317 43.7583 34.2792C43.8217 34.3268 43.8534 34.3901 43.8534 34.4693C43.8534 34.6594 43.7108 34.905 43.4257 35.206C43.1247 35.4911 42.8078 35.705 42.4752 35.8475C42.1425 36.006 41.794 36.0852 41.4296 36.0852C40.5425 36.0852 39.8059 35.6337 39.2197 34.7307H39.1722C38.6494 35.206 38.1742 35.5466 37.7464 35.7525C37.3346 35.9743 36.891 36.0852 36.4158 36.0852ZM37.8415 34.5406C38.0158 34.5406 38.1583 34.5169 38.2692 34.4693C38.3801 34.406 38.491 34.3109 38.6019 34.1842C38.6494 34.1208 38.689 34.0416 38.7207 33.9466C38.7524 33.8357 38.7682 33.7089 38.7682 33.5664L38.8395 31.8555C38.8395 31.6971 38.8158 31.5941 38.7682 31.5466C38.7207 31.499 38.6653 31.4753 38.6019 31.4753C38.5702 31.4753 38.5306 31.4832 38.4831 31.499C38.4356 31.5149 38.3801 31.5386 38.3167 31.5703C37.8573 31.7921 37.5167 32.0218 37.295 32.2594C37.0732 32.4812 36.9623 32.8456 36.9623 33.3525C36.9623 33.8119 37.0573 34.1287 37.2474 34.303C37.4375 34.4614 37.6356 34.5406 37.8415 34.5406ZM44.7439 35.8238C44.633 35.8238 44.5221 35.8 44.4112 35.7525C44.3162 35.6891 44.2687 35.602 44.2687 35.4911C44.2687 35.3644 44.3241 35.2693 44.435 35.206C44.5459 35.1268 44.6726 35.0634 44.8152 35.0159C45.0528 34.9367 45.2588 34.8495 45.433 34.7545C45.6231 34.6436 45.7182 34.4297 45.7182 34.1129V28.6713C45.7182 28.3228 45.6627 28.0297 45.5518 27.7921C45.4568 27.5545 45.2667 27.404 44.9815 27.3406C44.9182 27.3248 44.8548 27.2852 44.7914 27.2218C44.7439 27.1584 44.7201 27.0555 44.7201 26.9129C44.7201 26.6911 44.7994 26.5565 44.9578 26.5089C45.4964 26.3822 46.0825 26.2159 46.7162 26.0099C47.3657 25.7881 47.9201 25.5584 48.3796 25.3208C48.4429 25.2891 48.5142 25.2495 48.5934 25.202C48.6726 25.1545 48.7439 25.1307 48.8073 25.1307C48.9023 25.1307 48.9578 25.1624 48.9736 25.2258C49.0053 25.2733 49.0211 25.3367 49.0211 25.4159C49.0211 25.5426 48.9974 25.7485 48.9498 26.0337C48.9182 26.303 48.9023 26.5485 48.9023 26.7703C48.9023 26.8337 48.9023 26.905 48.9023 26.9842C48.9182 27.0634 48.934 27.1109 48.9498 27.1268C49.4885 26.604 50.035 26.2 50.5895 25.9149C51.1439 25.6297 51.7855 25.4872 52.5142 25.4872C53.338 25.4872 54.0271 25.7961 54.5815 26.4139C55.1518 27.0159 55.437 27.8396 55.437 28.8852V34.1129C55.437 34.4297 55.5241 34.6436 55.6984 34.7545C55.8885 34.8495 56.1023 34.9367 56.3399 35.0159C56.4667 35.0634 56.5776 35.1268 56.6726 35.206C56.7677 35.2693 56.8152 35.3644 56.8152 35.4911C56.8152 35.602 56.7677 35.6891 56.6726 35.7525C56.5934 35.8 56.5063 35.8238 56.4112 35.8238C56.0944 35.8238 55.7934 35.8079 55.5083 35.7763C55.239 35.7604 54.9697 35.7446 54.7003 35.7287C54.4469 35.7129 54.1776 35.705 53.8924 35.705C53.6231 35.705 53.3538 35.7129 53.0845 35.7287C52.8152 35.7446 52.5459 35.7604 52.2766 35.7763C52.0073 35.8079 51.7142 35.8238 51.3974 35.8238C51.3023 35.8238 51.2073 35.8 51.1122 35.7525C51.033 35.6891 50.9934 35.602 50.9934 35.4911C50.9934 35.3644 51.0409 35.2693 51.136 35.206C51.231 35.1268 51.3419 35.0634 51.4687 35.0159C51.7063 34.9367 51.9043 34.8495 52.0627 34.7545C52.2211 34.6436 52.3003 34.4297 52.3003 34.1129V29.3842C52.3003 28.7822 52.1578 28.3149 51.8726 27.9822C51.6033 27.6337 51.239 27.4515 50.7796 27.4357C50.431 27.4357 50.1221 27.4911 49.8528 27.602C49.5835 27.7129 49.3063 27.8634 49.0211 28.0535C48.9578 28.1169 48.9102 28.1881 48.8786 28.2674C48.8469 28.3466 48.831 28.4258 48.831 28.505V34.1129C48.831 34.4297 48.9182 34.6436 49.0924 34.7545C49.2667 34.8495 49.4647 34.9367 49.6865 35.0159C50.0033 35.1109 50.1617 35.2693 50.1617 35.4911C50.1617 35.5862 50.1221 35.6654 50.0429 35.7287C49.9637 35.7921 49.8687 35.8238 49.7578 35.8238C49.4409 35.8238 49.1479 35.8079 48.8786 35.7763C48.6093 35.7604 48.3558 35.7446 48.1182 35.7287C47.8805 35.7129 47.6192 35.705 47.334 35.705C47.0647 35.705 46.7875 35.7129 46.5023 35.7287C46.233 35.7446 45.9479 35.7604 45.6469 35.7763C45.3617 35.8079 45.0607 35.8238 44.7439 35.8238ZM58.0843 31.8555C57.9258 31.8713 57.8466 31.7921 57.8466 31.6178C57.8466 31.1426 57.8862 30.7862 57.9654 30.5485C58.0605 30.2951 58.1951 30.1525 58.3694 30.1208C59.2248 29.9941 60.1199 29.8674 61.0546 29.7406C62.005 29.6139 62.908 29.5188 63.7635 29.4555C63.906 29.4396 64.0011 29.4713 64.0486 29.5505C64.0961 29.6139 64.1199 29.701 64.1199 29.8119C64.1199 30.2872 64.0882 30.6198 64.0248 30.8099C63.9615 31 63.8347 31.1109 63.6447 31.1426C62.805 31.2693 61.8862 31.404 60.8882 31.5466C59.8902 31.6733 58.9555 31.7763 58.0843 31.8555ZM65.6266 35.8238C65.4999 35.8238 65.389 35.8 65.2939 35.7525C65.1989 35.6891 65.1513 35.602 65.1513 35.4911C65.1513 35.2376 65.3177 35.0713 65.6503 34.9921C66.2523 34.8654 66.6642 34.707 66.886 34.5169C67.1236 34.3109 67.2424 33.9466 67.2424 33.4238V22.7782C67.2424 22.2396 67.1474 21.8515 66.9573 21.6139C66.7672 21.3604 66.387 21.1703 65.8167 21.0436C65.6107 20.996 65.4682 20.9327 65.389 20.8535C65.3098 20.7584 65.2701 20.6554 65.2701 20.5446C65.2701 20.4495 65.3177 20.3703 65.4127 20.3069C65.5078 20.2277 65.6345 20.1881 65.7929 20.1881C66.1573 20.1881 66.5216 20.196 66.886 20.2119C67.2662 20.2277 67.6305 20.2515 67.9791 20.2832C68.3434 20.299 68.684 20.3069 69.0008 20.3069C69.381 20.3069 69.7137 20.2911 69.9989 20.2594C70.2999 20.2119 70.6246 20.1723 70.9731 20.1406C71.3375 20.0931 71.7731 20.0693 72.28 20.0693C74.2127 20.0693 75.7414 20.4812 76.8662 21.305C78.0068 22.1129 78.5771 23.2297 78.5771 24.6555C78.5771 25.6535 78.3632 26.5723 77.9355 27.4119C77.5236 28.2515 76.89 28.9327 76.0345 29.4555C75.1949 29.9624 74.1256 30.2159 72.8266 30.2159C72.4147 30.2159 72.0979 30.1525 71.8761 30.0258C71.6701 29.899 71.5672 29.7485 71.5672 29.5743C71.5672 29.4634 71.6147 29.3763 71.7098 29.3129C71.8206 29.2337 71.9157 29.1941 71.9949 29.1941C72.1692 29.1941 72.3197 29.2178 72.4464 29.2654C72.5731 29.2971 72.7474 29.3129 72.9692 29.3129C73.6345 29.3129 74.1335 28.9406 74.4662 28.1961C74.8147 27.4515 74.989 26.4693 74.989 25.2495C74.989 23.7921 74.7513 22.7386 74.2761 22.0891C73.8008 21.4396 73.1355 21.1148 72.28 21.1148C71.8365 21.1148 71.4959 21.2178 71.2583 21.4238C71.0365 21.6139 70.9256 21.9149 70.9256 22.3268L70.9018 33.3763C70.9018 33.8832 71.0365 34.2475 71.3058 34.4693C71.5751 34.6753 72.0424 34.8495 72.7078 34.9921C72.882 35.0238 73.0088 35.0792 73.088 35.1584C73.183 35.2218 73.2305 35.3248 73.2305 35.4674C73.2305 35.5782 73.1909 35.6654 73.1117 35.7287C73.0325 35.7921 72.9216 35.8238 72.7791 35.8238C72.4305 35.8238 72.0266 35.8079 71.5672 35.7763C71.1236 35.7604 70.68 35.7446 70.2365 35.7287C69.7929 35.7129 69.4127 35.705 69.0959 35.705C68.7632 35.705 68.3989 35.7129 68.0028 35.7287C67.6068 35.7446 67.1949 35.7604 66.7672 35.7763C66.3553 35.8079 65.9751 35.8238 65.6266 35.8238ZM81.6432 36.0852C81.2154 36.0852 80.8194 35.9822 80.455 35.7763C80.0907 35.5703 79.7976 35.301 79.5758 34.9683C79.3699 34.6357 79.2669 34.2713 79.2669 33.8753C79.2669 33.3367 79.4333 32.8852 79.7659 32.5208C80.1145 32.1565 80.6214 31.8317 81.2867 31.5466L83.4016 30.6198C83.7184 30.4773 83.9085 30.3505 83.9719 30.2396C84.0511 30.1287 84.0907 29.9228 84.0907 29.6218L84.1145 28.2674C84.1303 27.8238 84.0511 27.4753 83.8768 27.2218C83.7026 26.9525 83.4412 26.8178 83.0927 26.8178C82.8867 26.8178 82.6808 26.8654 82.4748 26.9604C82.2689 27.0396 82.1105 27.1347 81.9996 27.2456C81.9521 27.3089 81.9125 27.3881 81.8808 27.4832C81.8649 27.5624 81.857 27.6495 81.857 27.7446C81.857 27.8396 81.8649 27.9584 81.8808 28.101C81.8966 28.2277 81.9046 28.3386 81.9046 28.4337C81.9046 28.5287 81.7778 28.6555 81.5244 28.8139C81.2709 28.9565 80.9778 29.0911 80.6451 29.2178C80.3125 29.3287 80.0273 29.3842 79.7897 29.3842C79.6788 29.3842 79.5758 29.3367 79.4808 29.2416C79.4016 29.1466 79.362 29.0277 79.362 28.8852C79.362 28.6317 79.4491 28.3862 79.6234 28.1485C79.7976 27.8951 80.0828 27.6099 80.4788 27.2931C80.8907 26.9446 81.3422 26.6357 81.8333 26.3664C82.3244 26.0971 82.8075 25.8832 83.2828 25.7248C83.7739 25.5664 84.1857 25.4872 84.5184 25.4872C85.3739 25.4872 86.055 25.7644 86.562 26.3188C87.0689 26.8575 87.3065 27.5782 87.2748 28.4812L87.156 33.2812C87.1402 33.6456 87.2036 33.9545 87.3461 34.2079C87.4887 34.4614 87.663 34.5881 87.8689 34.5881C88.1699 34.5881 88.4313 34.4852 88.6531 34.2792C88.7006 34.2317 88.7481 34.2079 88.7956 34.2079C88.8748 34.2079 88.9382 34.2317 88.9857 34.2792C89.0491 34.3268 89.0808 34.3901 89.0808 34.4693C89.0808 34.6594 88.9382 34.905 88.6531 35.206C88.3521 35.4911 88.0352 35.705 87.7026 35.8475C87.3699 36.006 87.0214 36.0852 86.657 36.0852C85.7699 36.0852 85.0333 35.6337 84.4471 34.7307H84.3996C83.8768 35.206 83.4016 35.5466 82.9739 35.7525C82.562 35.9743 82.1184 36.0852 81.6432 36.0852ZM83.0689 34.5406C83.2432 34.5406 83.3857 34.5169 83.4966 34.4693C83.6075 34.406 83.7184 34.3109 83.8293 34.1842C83.8768 34.1208 83.9164 34.0416 83.9481 33.9466C83.9798 33.8357 83.9956 33.7089 83.9956 33.5664L84.0669 31.8555C84.0669 31.6971 84.0432 31.5941 83.9956 31.5466C83.9481 31.499 83.8927 31.4753 83.8293 31.4753C83.7976 31.4753 83.758 31.4832 83.7105 31.499C83.663 31.5149 83.6075 31.5386 83.5442 31.5703C83.0848 31.7921 82.7442 32.0218 82.5224 32.2594C82.3006 32.4812 82.1897 32.8456 82.1897 33.3525C82.1897 33.8119 82.2848 34.1287 82.4748 34.303C82.6649 34.4614 82.863 34.5406 83.0689 34.5406ZM97.2189 36.2515C97.0921 36.2515 97.0288 36.1723 97.0288 36.0139C97.0288 35.8238 97.0446 35.5703 97.0763 35.2535C97.1238 34.9367 97.1476 34.6911 97.1476 34.5169C97.1476 34.4535 97.1396 34.398 97.1238 34.3505C97.1238 34.303 97.1159 34.2713 97.1 34.2555C96.6723 34.7782 96.1258 35.2218 95.4604 35.5862C94.7951 35.9347 94.0901 36.1089 93.3456 36.1089C92.8545 36.1089 92.4109 35.9664 92.0149 35.6812C91.6189 35.3802 91.302 34.9763 91.0644 34.4693C90.8426 33.9624 90.7317 33.3921 90.7317 32.7584V28.3149C90.7317 27.9505 90.6604 27.6574 90.5179 27.4357C90.3911 27.2139 90.1456 27.0634 89.7812 26.9842C89.6862 26.9683 89.5991 26.9287 89.5198 26.8654C89.4565 26.7862 89.4248 26.6753 89.4248 26.5327C89.4248 26.4218 89.4565 26.3347 89.5198 26.2713C89.5832 26.1921 89.6703 26.1446 89.7812 26.1287C90.4466 26.0971 91.0486 26.0337 91.5872 25.9386C92.1258 25.8277 92.6723 25.701 93.2268 25.5584C93.306 25.5426 93.3852 25.5268 93.4644 25.5109C93.5594 25.4792 93.6466 25.4634 93.7258 25.4634C93.9476 25.4634 94.0505 25.5743 94.0347 25.7961C93.9713 26.1604 93.9238 26.4693 93.8921 26.7228C93.8604 26.9604 93.8446 27.2614 93.8446 27.6258V32.1881C93.8446 32.5683 93.908 32.901 94.0347 33.1862C94.1614 33.4713 94.3357 33.6931 94.5575 33.8515C94.7792 34.0099 95.0248 34.0971 95.2941 34.1129C95.5476 34.1129 95.7931 34.0812 96.0307 34.0178C96.2842 33.9545 96.5218 33.8119 96.7436 33.5901C96.8387 33.5109 96.9416 33.3525 97.0525 33.1149C97.1634 32.8614 97.2189 32.5287 97.2189 32.1169V28.2911C97.2189 28.006 97.1634 27.7763 97.0525 27.602C96.9416 27.4119 96.7911 27.2614 96.601 27.1505C96.4109 27.0396 96.1891 26.9763 95.9357 26.9604C95.7614 26.9446 95.6189 26.905 95.508 26.8416C95.4129 26.7624 95.3654 26.6277 95.3654 26.4376C95.3654 26.2792 95.4208 26.1604 95.5317 26.0812C95.6426 26.002 95.7773 25.9624 95.9357 25.9624C96.7436 25.9149 97.3852 25.8753 97.8604 25.8436C98.3357 25.7961 98.7238 25.7485 99.0248 25.701C99.3258 25.6535 99.6268 25.598 99.9278 25.5347C99.9753 25.5188 100.031 25.503 100.094 25.4872C100.158 25.4713 100.205 25.4634 100.237 25.4634C100.474 25.4634 100.593 25.5584 100.593 25.7485C100.593 25.7961 100.585 25.8515 100.569 25.9149C100.553 25.9782 100.53 26.0416 100.498 26.105C100.482 26.1683 100.459 26.3109 100.427 26.5327C100.411 26.7386 100.387 26.9604 100.355 27.198C100.34 27.4357 100.332 27.6258 100.332 27.7683V33.2812C100.332 33.6456 100.371 33.8911 100.451 34.0178C100.546 34.1287 100.649 34.1842 100.759 34.1842C100.839 34.1842 100.957 34.1921 101.116 34.2079C101.274 34.2079 101.377 34.2079 101.424 34.2079C101.567 34.2079 101.678 34.2475 101.757 34.3268C101.836 34.406 101.876 34.5089 101.876 34.6357C101.876 34.7782 101.844 34.8971 101.781 34.9921C101.733 35.0713 101.63 35.1188 101.472 35.1347C100.712 35.198 100.023 35.3327 99.405 35.5386C98.803 35.7287 98.2802 35.9109 97.8367 36.0852C97.7416 36.1169 97.6387 36.1485 97.5278 36.1802C97.4169 36.2277 97.3139 36.2515 97.2189 36.2515ZM102.94 35.8238C102.797 35.8238 102.679 35.8 102.584 35.7525C102.504 35.6891 102.465 35.602 102.465 35.4911C102.465 35.3644 102.512 35.2693 102.607 35.206C102.702 35.1268 102.837 35.0634 103.011 35.0159C103.249 34.9367 103.455 34.8495 103.629 34.7545C103.819 34.6594 103.914 34.4456 103.914 34.1129V22.6832C103.914 22.2555 103.851 21.8832 103.724 21.5663C103.613 21.2495 103.36 21.0515 102.964 20.9723C102.805 20.9406 102.726 20.8218 102.726 20.6158C102.726 20.4099 102.797 20.2911 102.94 20.2594C103.352 20.1802 103.795 20.0693 104.271 19.9267C104.746 19.7683 105.197 19.6099 105.625 19.4515C106.053 19.2772 106.386 19.1505 106.623 19.0713C106.75 19.0238 106.853 19 106.932 19C107.027 19 107.09 19.0317 107.122 19.095C107.154 19.1426 107.17 19.2059 107.17 19.2852C107.17 19.396 107.146 19.602 107.098 19.903C107.067 20.204 107.043 20.5446 107.027 20.9248V34.0654C107.027 34.4139 107.114 34.6357 107.288 34.7307C107.479 34.8099 107.692 34.8891 107.93 34.9683C108.104 35.0317 108.239 35.0951 108.334 35.1584C108.429 35.2218 108.477 35.3169 108.477 35.4436C108.477 35.5545 108.429 35.6416 108.334 35.705C108.255 35.7525 108.144 35.7763 108.001 35.7763C107.7 35.7763 107.399 35.7683 107.098 35.7525C106.813 35.7367 106.528 35.7287 106.243 35.7287C105.974 35.7129 105.696 35.705 105.411 35.705C105.142 35.705 104.873 35.7129 104.603 35.7287C104.35 35.7446 104.088 35.7604 103.819 35.7763C103.55 35.8079 103.257 35.8238 102.94 35.8238ZM123.505 36.0852C122.365 36.0852 121.288 35.903 120.274 35.5386C119.276 35.1584 118.389 34.6198 117.612 33.9228C116.852 33.2258 116.258 32.402 115.83 31.4515C115.402 30.501 115.189 29.4475 115.189 28.2911C115.189 27.198 115.395 26.1525 115.806 25.1545C116.234 24.1565 116.836 23.2693 117.612 22.4931C118.404 21.7168 119.355 21.1069 120.464 20.6634C121.573 20.204 122.8 19.9743 124.147 19.9743C124.48 19.9743 124.86 19.998 125.288 20.0455C125.731 20.0931 126.183 20.1564 126.642 20.2356C127.101 20.3149 127.529 20.4099 127.925 20.5208C128.337 20.6158 128.67 20.7188 128.923 20.8297C129.066 20.8772 129.177 20.9485 129.256 21.0436C129.335 21.1228 129.383 21.2416 129.398 21.4C129.478 21.9545 129.541 22.4773 129.589 22.9683C129.652 23.4594 129.684 23.8713 129.684 24.204C129.684 24.3624 129.644 24.4812 129.565 24.5604C129.501 24.6396 129.406 24.6792 129.28 24.6792C129.09 24.6792 128.947 24.6317 128.852 24.5367C128.773 24.4416 128.701 24.3228 128.638 24.1802C128.495 23.8792 128.329 23.5703 128.139 23.2535C127.965 22.9208 127.751 22.6198 127.497 22.3505C127.307 22.1604 127.078 21.9782 126.808 21.804C126.555 21.6297 126.238 21.4871 125.858 21.3762C125.478 21.2654 125.018 21.2099 124.48 21.2099C123.624 21.2099 122.864 21.3842 122.198 21.7327C121.533 22.0812 120.971 22.5644 120.511 23.1822C120.068 23.7842 119.727 24.4733 119.49 25.2495C119.268 26.0099 119.157 26.8178 119.157 27.6733C119.157 28.7347 119.26 29.7089 119.466 30.5961C119.672 31.4674 119.973 32.2198 120.369 32.8535C120.765 33.4872 121.256 33.9782 121.842 34.3268C122.428 34.6594 123.109 34.8258 123.886 34.8258C124.297 34.8258 124.63 34.7545 124.884 34.6119C125.153 34.4693 125.367 34.3426 125.525 34.2317C125.684 34.105 125.81 33.907 125.905 33.6376C126.016 33.3525 126.072 33.0357 126.072 32.6872C126.088 32.5446 126.095 32.3466 126.095 32.0931C126.095 31.8396 126.095 31.5862 126.095 31.3327C126.111 31.0792 126.119 30.8812 126.119 30.7386C126.119 30.5644 126.08 30.406 126 30.2634C125.937 30.105 125.802 29.9862 125.596 29.907C125.454 29.8119 125.288 29.7327 125.097 29.6693C124.923 29.606 124.741 29.5584 124.551 29.5268C124.377 29.4792 124.218 29.4396 124.076 29.4079C123.949 29.3921 123.822 29.3367 123.695 29.2416C123.569 29.1466 123.505 29.0277 123.505 28.8852C123.505 28.7743 123.561 28.6872 123.672 28.6238C123.783 28.5604 123.894 28.5287 124.004 28.5287C124.369 28.5287 124.765 28.5367 125.193 28.5525C125.636 28.5683 126.072 28.5921 126.499 28.6238C126.927 28.6396 127.307 28.6475 127.64 28.6475C128.099 28.6475 128.583 28.6317 129.09 28.6C129.612 28.5683 130.111 28.5525 130.587 28.5525C130.697 28.5525 130.793 28.5842 130.872 28.6475C130.951 28.6951 130.991 28.7822 130.991 28.9089C130.991 29.0674 130.943 29.1862 130.848 29.2654C130.769 29.3287 130.658 29.3763 130.515 29.4079C130.072 29.5188 129.771 29.6614 129.612 29.8357C129.454 30.0099 129.343 30.2555 129.28 30.5723C129.216 30.9208 129.169 31.2297 129.137 31.499C129.121 31.7525 129.113 32.0376 129.113 32.3545V33.1149C129.113 33.1941 129.145 33.2733 129.208 33.3525C129.272 33.4317 129.343 33.5109 129.422 33.5901C129.486 33.6693 129.541 33.7485 129.589 33.8277C129.636 33.907 129.66 33.9941 129.66 34.0891C129.66 34.1842 129.628 34.2872 129.565 34.398C129.501 34.4931 129.383 34.5565 129.208 34.5881C129.082 34.604 128.86 34.6911 128.543 34.8495C128.226 34.9921 127.83 35.1664 127.355 35.3723C126.88 35.5624 126.317 35.7287 125.668 35.8713C125.018 36.0139 124.297 36.0852 123.505 36.0852ZM137.21 36.0852C136.26 36.0852 135.404 35.8713 134.644 35.4436C133.884 35.0159 133.274 34.4297 132.814 33.6852C132.371 32.9248 132.149 32.0693 132.149 31.1188C132.149 30.3584 132.292 29.6376 132.577 28.9565C132.862 28.2753 133.258 27.6733 133.765 27.1505C134.272 26.6277 134.866 26.2159 135.547 25.9149C136.228 25.6139 136.957 25.4634 137.733 25.4634C138.715 25.4634 139.602 25.6931 140.395 26.1525C141.187 26.6119 141.812 27.2218 142.272 27.9822C142.747 28.7268 142.985 29.5426 142.985 30.4297C142.985 31.4436 142.763 32.3862 142.319 33.2575C141.892 34.1129 141.25 34.802 140.395 35.3248C139.555 35.8317 138.494 36.0852 137.21 36.0852ZM137.686 35.0396C138.018 35.0396 138.303 34.9763 138.541 34.8495C138.795 34.707 139 34.501 139.159 34.2317C139.349 33.9149 139.476 33.4872 139.539 32.9485C139.618 32.3941 139.658 31.7446 139.658 31C139.658 30.1446 139.563 29.3842 139.373 28.7188C139.183 28.0376 138.913 27.499 138.565 27.103C138.232 26.707 137.836 26.5089 137.377 26.5089C137.123 26.5089 136.894 26.5565 136.688 26.6515C136.482 26.7307 136.299 26.8495 136.141 27.0079C135.872 27.3248 135.682 27.7763 135.571 28.3624C135.476 28.9485 135.428 29.6693 135.428 30.5248C135.428 31.2852 135.523 32.0139 135.713 32.7109C135.919 33.3921 136.189 33.9545 136.521 34.398C136.87 34.8258 137.258 35.0396 137.686 35.0396ZM151.751 36.2515C151.625 36.2515 151.561 36.1723 151.561 36.0139C151.561 35.8238 151.577 35.5703 151.609 35.2535C151.656 34.9367 151.68 34.6911 151.68 34.5169C151.68 34.4535 151.672 34.398 151.656 34.3505C151.656 34.303 151.648 34.2713 151.632 34.2555C151.205 34.7782 150.658 35.2218 149.993 35.5862C149.327 35.9347 148.623 36.1089 147.878 36.1089C147.387 36.1089 146.943 35.9664 146.547 35.6812C146.151 35.3802 145.834 34.9763 145.597 34.4693C145.375 33.9624 145.264 33.3921 145.264 32.7584V28.3149C145.264 27.9505 145.193 27.6574 145.05 27.4357C144.924 27.2139 144.678 27.0634 144.314 26.9842C144.219 26.9683 144.131 26.9287 144.052 26.8654C143.989 26.7862 143.957 26.6753 143.957 26.5327C143.957 26.4218 143.989 26.3347 144.052 26.2713C144.116 26.1921 144.203 26.1446 144.314 26.1287C144.979 26.0971 145.581 26.0337 146.12 25.9386C146.658 25.8277 147.205 25.701 147.759 25.5584C147.838 25.5426 147.918 25.5268 147.997 25.5109C148.092 25.4792 148.179 25.4634 148.258 25.4634C148.48 25.4634 148.583 25.5743 148.567 25.7961C148.504 26.1604 148.456 26.4693 148.425 26.7228C148.393 26.9604 148.377 27.2614 148.377 27.6258V32.1881C148.377 32.5683 148.44 32.901 148.567 33.1862C148.694 33.4713 148.868 33.6931 149.09 33.8515C149.312 34.0099 149.557 34.0971 149.826 34.1129C150.08 34.1129 150.326 34.0812 150.563 34.0178C150.817 33.9545 151.054 33.8119 151.276 33.5901C151.371 33.5109 151.474 33.3525 151.585 33.1149C151.696 32.8614 151.751 32.5287 151.751 32.1169V28.2911C151.751 28.006 151.696 27.7763 151.585 27.602C151.474 27.4119 151.324 27.2614 151.133 27.1505C150.943 27.0396 150.722 26.9763 150.468 26.9604C150.294 26.9446 150.151 26.905 150.04 26.8416C149.945 26.7624 149.898 26.6277 149.898 26.4376C149.898 26.2792 149.953 26.1604 150.064 26.0812C150.175 26.002 150.31 25.9624 150.468 25.9624C151.276 25.9149 151.918 25.8753 152.393 25.8436C152.868 25.7961 153.256 25.7485 153.557 25.701C153.858 25.6535 154.159 25.598 154.46 25.5347C154.508 25.5188 154.563 25.503 154.626 25.4872C154.69 25.4713 154.737 25.4634 154.769 25.4634C155.007 25.4634 155.126 25.5584 155.126 25.7485C155.126 25.7961 155.118 25.8515 155.102 25.9149C155.086 25.9782 155.062 26.0416 155.03 26.105C155.015 26.1683 154.991 26.3109 154.959 26.5327C154.943 26.7386 154.92 26.9604 154.888 27.198C154.872 27.4357 154.864 27.6258 154.864 27.7683V33.2812C154.864 33.6456 154.904 33.8911 154.983 34.0178C155.078 34.1287 155.181 34.1842 155.292 34.1842C155.371 34.1842 155.49 34.1921 155.648 34.2079C155.807 34.2079 155.91 34.2079 155.957 34.2079C156.1 34.2079 156.211 34.2475 156.29 34.3268C156.369 34.406 156.409 34.5089 156.409 34.6357C156.409 34.7782 156.377 34.8971 156.314 34.9921C156.266 35.0713 156.163 35.1188 156.005 35.1347C155.244 35.198 154.555 35.3327 153.937 35.5386C153.335 35.7287 152.813 35.9109 152.369 36.0852C152.274 36.1169 152.171 36.1485 152.06 36.1802C151.949 36.2277 151.846 36.2515 151.751 36.2515ZM157.33 35.8475C157.219 35.8475 157.093 35.8317 156.95 35.8C156.823 35.7683 156.76 35.6971 156.76 35.5862C156.76 35.4436 156.792 35.3406 156.855 35.2773C156.934 35.198 157.053 35.1268 157.211 35.0634C157.386 35 157.56 34.8891 157.734 34.7307C157.924 34.5723 158.178 34.2872 158.495 33.8753L160.681 30.8812C160.776 30.7545 160.823 30.6515 160.823 30.5723C160.823 30.4931 160.784 30.3901 160.704 30.2634L158.922 27.6258C158.716 27.3089 158.534 27.0555 158.376 26.8654C158.217 26.6753 158.011 26.5327 157.758 26.4376C157.6 26.3901 157.481 26.3347 157.401 26.2713C157.338 26.1921 157.306 26.0812 157.306 25.9386C157.306 25.8119 157.378 25.7327 157.52 25.701C157.663 25.6693 157.782 25.6535 157.877 25.6535C158.273 25.6535 158.574 25.6693 158.78 25.701C158.986 25.7169 159.192 25.7406 159.398 25.7723C159.619 25.7881 159.904 25.7961 160.253 25.7961C160.712 25.7961 161.093 25.7802 161.394 25.7485C161.71 25.701 162.13 25.6773 162.653 25.6773C162.748 25.6773 162.867 25.701 163.009 25.7485C163.152 25.7802 163.223 25.8594 163.223 25.9862C163.223 26.1129 163.16 26.2 163.033 26.2475C162.922 26.2951 162.803 26.3505 162.677 26.4139C162.518 26.4773 162.368 26.5485 162.225 26.6277C162.083 26.707 162.011 26.8258 162.011 26.9842C162.011 27.0792 162.043 27.1901 162.106 27.3169C162.17 27.4436 162.241 27.5782 162.32 27.7208L163.413 29.3129C163.493 29.4555 163.564 29.4555 163.627 29.3129L164.364 28.0535C164.443 27.8951 164.514 27.7208 164.578 27.5307C164.657 27.3406 164.689 27.1664 164.673 27.0079C164.673 26.7545 164.53 26.5723 164.245 26.4614C164.118 26.398 164 26.3426 163.889 26.2951C163.794 26.2475 163.746 26.1525 163.746 26.0099C163.746 25.8832 163.817 25.804 163.96 25.7723C164.102 25.7248 164.221 25.701 164.316 25.701C164.712 25.7169 165.013 25.7327 165.219 25.7485C165.441 25.7485 165.655 25.7485 165.861 25.7485C166.099 25.7485 166.304 25.7406 166.479 25.7248C166.669 25.6931 166.97 25.6693 167.382 25.6535C167.493 25.6535 167.611 25.6693 167.738 25.701C167.881 25.7327 167.952 25.8119 167.952 25.9386C167.952 26.0654 167.912 26.1683 167.833 26.2475C167.77 26.3109 167.659 26.3743 167.501 26.4376C167.326 26.501 167.136 26.6119 166.93 26.7703C166.74 26.9287 166.495 27.206 166.194 27.602L164.483 29.8832C164.388 30.0258 164.34 30.1367 164.34 30.2159C164.356 30.2951 164.403 30.3901 164.483 30.501L166.479 33.6376C166.685 33.9703 166.922 34.2555 167.192 34.4931C167.461 34.7307 167.738 34.905 168.023 35.0159C168.182 35.0634 168.293 35.1268 168.356 35.206C168.435 35.2693 168.475 35.3723 168.475 35.5149C168.475 35.6416 168.403 35.7208 168.261 35.7525C168.134 35.7842 168.015 35.8 167.904 35.8C167.524 35.8 167.192 35.7842 166.906 35.7525C166.637 35.7367 166.368 35.7208 166.099 35.705C165.829 35.6733 165.52 35.6575 165.172 35.6575C164.697 35.6575 164.261 35.6812 163.865 35.7287C163.485 35.7604 163.025 35.7763 162.487 35.7763C162.106 35.7763 161.916 35.6733 161.916 35.4674C161.916 35.3248 161.964 35.2297 162.059 35.1822C162.17 35.1188 162.304 35.0634 162.463 35.0159C162.669 34.9525 162.835 34.8575 162.962 34.7307C163.089 34.604 163.152 34.398 163.152 34.1129C163.152 33.9545 163.136 33.8198 163.104 33.7089C163.073 33.5822 162.994 33.4317 162.867 33.2575L161.655 31.4753C161.607 31.4277 161.56 31.4277 161.512 31.4753L160.396 33.4475C160.348 33.5426 160.277 33.6773 160.182 33.8515C160.102 34.0258 160.063 34.2 160.063 34.3743C160.063 34.5327 160.095 34.6753 160.158 34.802C160.237 34.9129 160.348 35.0079 160.491 35.0872C160.617 35.1347 160.736 35.1901 160.847 35.2535C160.958 35.301 161.013 35.3881 161.013 35.5149C161.013 35.6416 160.942 35.7208 160.8 35.7525C160.673 35.8 160.554 35.8238 160.443 35.8238C160.031 35.8238 159.738 35.8159 159.564 35.8C159.39 35.7842 159.2 35.7763 158.994 35.7763C158.756 35.7763 158.518 35.7763 158.281 35.7763C158.059 35.7921 157.742 35.8159 157.33 35.8475Z" fill="black"/>
<path d="M8 60H169" stroke="black" stroke-width="0.594059"/>
</g>
<defs>
<clipPath id="clip0_2502_5969">
<rect width="182" height="60" fill="white"/>
</clipPath>
</defs>
</svg>
